<svg xmlns="http://www.w3.org/2000/svg" viewBox="0 0 236 236"><defs><style>.cls-1{fill:#2a84c2;}</style></defs><title>FC5</title><g id="Capa_2" data-name="Capa 2"><g id="Capa_1-2" data-name="Capa 1"><path class="cls-1" d="M156.46,137.32c0,1.9,1.6,2.85,3.41,3.07v-6C157.93,134.46,156.46,135.67,156.46,137.32Z"/><polygon class="cls-1" points="87.9 127.83 84.78 142.69 101.54 142.69 98.42 127.83 87.9 127.83"/><path class="cls-1" d="M161.9,147.52v6.92c2.3-.21,3.77-1.25,3.77-3.72C165.67,148.6,163.68,147.83,161.9,147.52Z"/><circle class="cls-1" cx="160.88" cy="101.91" r="2.51"/><polygon class="cls-1" points="89.44 123.15 96.89 123.15 102.94 110.55 83.39 110.55 89.44 123.15"/><path class="cls-1" d="M179.1,118.23H142.34a2.12,2.12,0,0,0-2.24,2v48.31a2.12,2.12,0,0,0,2.24,2H179.1a2.13,2.13,0,0,0,2.25-2V120.21A2.13,2.13,0,0,0,179.1,118.23Zm-17.2,41.92v3.72h-2.59v-3.72a31.91,31.91,0,0,1-8.74-1.12l.57-6.14a22.06,22.06,0,0,0,8.17,1.55v-7.31c-4.84-.73-9.86-3.59-9.86-9.12,0-6.19,4.71-8.82,10.42-9.08v-3.68h2.6v3.68a21,21,0,0,1,8,1.34l-.52,5.84a18.89,18.89,0,0,0-7.48-1.73v6.53c5.49,1.21,10.2,2.94,10.2,9.9C172.67,157.12,167.22,160.07,161.9,160.15Z"/><path class="cls-1" d="M118,0A118,118,0,1,0,236,118,118,118,0,0,0,118,0Zm30.91,104.86a2.79,2.79,0,0,1,2.78-2.78h4.46v0a4.87,4.87,0,1,1,9.74,0v0h4.46a2.78,2.78,0,0,1,2.78,2.78v3.45H148.91Zm-23.51-.72v45.74H35.93c-.31-18.17,8.12-37.23,32.73-50.45A40.53,40.53,0,0,1,57.35,70.92,35.82,35.82,0,0,1,93,35h.39A35.82,35.82,0,0,1,129,70.92a40.49,40.49,0,0,1-11.32,28.51A82.26,82.26,0,0,1,125.4,104.14Zm64.09,70.56a2.66,2.66,0,0,1-2.81,2.48H135.32a2.65,2.65,0,0,1-2.8-2.48v-65a2.65,2.65,0,0,1,2.8-2.48h9.35v4.13h32.71v-4.13h9.3a2.66,2.66,0,0,1,2.81,2.48Z"/></g></g></svg>