<svg xmlns="http://www.w3.org/2000/svg" viewBox="0 0 236 236"><defs><style>.cls-1{fill:#2a84c2;}</style></defs><title>FC6</title><g id="Capa_2" data-name="Capa 2"><g id="Capa_1-2" data-name="Capa 1"><path class="cls-1" d="M159.86,70.07a15.32,15.32,0,1,0,15.31,15.32A15.33,15.33,0,0,0,159.86,70.07Zm0,24.09a8.78,8.78,0,1,1,8.78-8.77A8.78,8.78,0,0,1,159.86,94.16Z"/><polygon class="cls-1" points="93.04 148.77 101.17 148.77 107.77 135.03 86.45 135.03 93.04 148.77"/><path class="cls-1" d="M191.11,77.77a1.94,1.94,0,0,0-2-1.81l-5.22.26a26,26,0,0,0-1.8-3.76l3.53-3.92a1.94,1.94,0,0,0-.13-2.75h0l-8.88-8a1.94,1.94,0,0,0-2.74.13v0l-3.54,3.92a26.26,26.26,0,0,0-3.93-1.4l-.27-5.22a2,2,0,0,0-2-1.9h0L152.1,54a1.94,1.94,0,0,0-1.84,2l.27,5.22a25.57,25.57,0,0,0-3.77,1.8l-3.92-3.54a2,2,0,0,0-2.76.14l-7.93,8.89a2,2,0,0,0,.15,2.75l3.92,3.54a26.26,26.26,0,0,0-1.4,3.93L129.6,79a2,2,0,0,0-1.9,2v0L128.32,93a1.94,1.94,0,0,0,2,1.85l5.23-.27a23.7,23.7,0,0,0,1.8,3.77l-3.54,3.92A2,2,0,0,0,134,105h0l8.88,7.92a1.92,1.92,0,0,0,2.74-.13h0l3.54-3.92a25.23,25.23,0,0,0,3.93,1.41l.27,5.22a2,2,0,0,0,2,1.89h0l11.94-.62a1.94,1.94,0,0,0,1.84-2l-.26-5.23a25,25,0,0,0,3.76-1.8l3.92,3.54a2,2,0,0,0,2.75-.13h0l7.93-8.88a2,2,0,0,0-.14-2.75h0l-3.92-3.54A25.23,25.23,0,0,0,184.62,92l5.22-.27a2,2,0,0,0,1.89-2v0Zm-30.3,28.88A21.29,21.29,0,1,1,181,84.29,21.32,21.32,0,0,1,160.81,106.65Z"/><polygon class="cls-1" points="91.37 153.88 87.97 170.09 106.25 170.09 102.85 153.88 91.37 153.88"/><path class="cls-1" d="M118,0A118,118,0,1,0,236,118,118,118,0,0,0,118,0Zm41.53,177.93H34.69c-.34-19.82,8.85-40.6,35.7-55A44.17,44.17,0,0,1,58,91.8,39.07,39.07,0,0,1,96.9,52.63h.42a38.37,38.37,0,0,1,17.38,4.15c-13.68,17-13.18,40.9,2,56.82a2.56,2.56,0,0,1,.42.51v.14q-.25,6.18-.53,12.36l-.85,19.64,17.26-10,5.73-3.31C154.17,146.19,159.8,162.35,159.53,177.93Zm32-65.56c-12.79,10-27.31,13-43.11,10.25A8.37,8.37,0,0,0,142,123.7l-15.28,9.9c-.05-5.76-.08-11.52-.15-17.29a8.49,8.49,0,0,0-3-6.42c-14.18-13.42-14.49-35.21-.83-49.76,17.36-18.5,48.7-21,68.73-5.36C211.24,70.1,211.27,97,191.57,112.37Z"/></g></g></svg>