<svg xmlns="http://www.w3.org/2000/svg" viewBox="0 0 215 215"><defs><style>.cls-1{fill:#2a84c2;}</style></defs><title>Icono5C1</title><g id="Capa_2" data-name="Capa 2"><g id="Capa_1-2" data-name="Capa 1"><g id="Capa_1-2-2" data-name="Capa 1-2"><path id="Trazado_1195" data-name="Trazado 1195" class="cls-1" d="M107.5,0A107.5,107.5,0,1,0,215,107.5,107.5,107.5,0,0,0,107.5,0ZM91.28,143.18a54.74,54.74,0,1,1,55-54.53v.16C146.15,118.8,121.45,143.24,91.28,143.18Zm79,23.62c-4.56,4.76-8.2,5.4-11.79,1.64-10-10.34-19.81-20.82-29.45-31l12.15-11.6a8.64,8.64,0,0,1,1.61,1.22Q157.1,141,171.33,155C175.2,158.8,174.92,162,170.3,166.8Z"/><path class="cls-1" d="M92.38,45.77a43.78,43.78,0,1,0,43.81,43.74h0A43.73,43.73,0,0,0,92.46,45.77ZM98.88,115H86V102.56H98.88Zm-1.3-18.15H87.32l-2-35.35H99.57Z"/></g></g></g></svg>