<svg xmlns="http://www.w3.org/2000/svg" viewBox="0 0 236 236"><defs><style>.cls-1{fill:#fff;}</style></defs><title>icono11</title><g id="Capa_2" data-name="Capa 2"><g id="Capa_1-2" data-name="Capa 1"><path class="cls-1" d="M118.1,31.56a5.27,5.27,0,1,0,5.26,5.26A5.26,5.26,0,0,0,118.1,31.56Z"/><path class="cls-1" d="M118,0A118,118,0,1,0,236,118,118,118,0,0,0,118,0ZM92.94,43a5.85,5.85,0,0,1,5.85-5.85h9.37s0,0,0-.07a10.24,10.24,0,0,1,20.48,0v.07H138A5.85,5.85,0,0,1,143.84,43v7.25H92.94Zm83,146.75a5.44,5.44,0,0,1-5.65,5.2H67a5.44,5.44,0,0,1-5.64-5.2V53.08A5.44,5.44,0,0,1,67,47.88H85.82v8.68h65.79V47.88h18.7a5.44,5.44,0,0,1,5.65,5.2Z"/><path class="cls-1" d="M155.08,71.11H81.14a4.34,4.34,0,0,0-4.51,4.16V176.78a4.35,4.35,0,0,0,4.51,4.16h73.94a4.35,4.35,0,0,0,4.51-4.16V75.27A4.34,4.34,0,0,0,155.08,71.11Zm-40.72,50.43a14.83,14.83,0,0,1,0,8.09,2,2,0,0,0,.42,1.66c1.76,1.88,3.66,3.62,5.41,5.51a1.85,1.85,0,0,0,2.61.48,13.17,13.17,0,0,1,15.65,20.35A14.86,14.86,0,0,1,130,162.5h-3.29a15.56,15.56,0,0,1-6.94-3.11A13.12,13.12,0,0,1,115.79,145a1.82,1.82,0,0,0-.52-2.26c-2.1-2-4.1-4.08-6.12-6.11-7,4.23-14.14,1.68-17.62-2.66a13.21,13.21,0,0,1-.17-16.54c3.94-4.92,11.07-6.79,17.8-2.84,2.18-2.2,4.41-4.44,6.6-6.72a1.33,1.33,0,0,0,.18-1.14,13.28,13.28,0,0,1,10.58-18.08.42.42,0,0,0,.14-.09H130c.35.11.7.25,1.06.33,6.38,1.27,11.23,7.88,10.4,14.17-1.26,9.46-10.34,14.5-19,10.52a1.32,1.32,0,0,0-1.81.34c-1.9,2-3.9,3.85-5.76,5.85A2.21,2.21,0,0,0,114.36,121.54Z"/></g></g></svg>