<svg xmlns="http://www.w3.org/2000/svg" width="236" height="236" viewBox="0 0 236 236">
  <g id="Grupo_10430" data-name="Grupo 10430" transform="translate(918.96 -5266.862)">
    <path id="Trazado_1132" data-name="Trazado 1132" d="M-818.569,5320.172a44.027,44.027,0,0,0-43.75,43.848,43.907,43.907,0,0,0,43.833,43.705,43.866,43.866,0,0,0,43.731-43.789A43.956,43.956,0,0,0-818.569,5320.172Z" fill="#fff"/>
    <path id="Trazado_1133" data-name="Trazado 1133" d="M-800.96,5266.862a118,118,0,0,0-118,118,118,118,0,0,0,118,118,118,118,0,0,0,118-118A118,118,0,0,0-800.96,5266.862Zm-17.8,157.174a60.236,60.236,0,0,1-59.865-60.175,60.359,60.359,0,0,1,60.086-60,60.308,60.308,0,0,1,60.106,60.476C-758.538,5397.269-785.648,5424.1-818.764,5424.036Zm86.74,25.921c-5.037,5.227-8.955,5.927-12.944,1.795-10.953-11.344-21.741-22.848-32.322-34,3.641-3.485,8.286-7.932,13.3-12.732a10.3,10.3,0,0,1,1.774,1.337q15.673,15.272,31.289,30.6C-726.644,5441.17-726.99,5444.734-732.024,5449.957Z" fill="#fff"/>
  </g>
</svg>
