<svg xmlns="http://www.w3.org/2000/svg" viewBox="0 0 236 236"><defs><style>.cls-1{fill:#fff;}</style></defs><title>icono9</title><g id="Capa_2" data-name="Capa 2"><g id="Capa_1-2" data-name="Capa 1"><circle class="cls-1" cx="118.1" cy="36.82" r="5.27" transform="translate(38.89 131.84) rotate(-67.5)"/><path class="cls-1" d="M101.32,142.85v7.23c2.4-.22,3.93-1.31,3.93-3.88C105.25,144,103.17,143.17,101.32,142.85Z"/><path class="cls-1" d="M95.63,132.18c0,2,1.67,3,3.57,3.21v-6.28C97.16,129.2,95.63,130.46,95.63,132.18Z"/><path class="cls-1" d="M155.08,71.11H81.14a4.34,4.34,0,0,0-4.51,4.16V176.78a4.35,4.35,0,0,0,4.51,4.16h73.94a4.35,4.35,0,0,0,4.51-4.16V75.27A4.34,4.34,0,0,0,155.08,71.11ZM118,80.26a31.48,31.48,0,0,1,30.83,25.39H120.5l-20-20A31.16,31.16,0,0,1,118,80.26Zm-16.65,75.79v3.89H98.61v-3.89c-2.89,0-7.28-.45-9.13-1.18l.59-6.41a23,23,0,0,0,8.54,1.62v-7.64c-5.06-.77-10.31-3.75-10.31-9.53,0-6.47,4.93-9.23,10.9-9.5v-3.84h2.71v3.84c2.8,0,6.28.41,8.36,1.4l-.54,6.11a19.74,19.74,0,0,0-7.82-1.81v6.82c5.74,1.27,10.67,3.08,10.67,10.36C112.58,152.89,106.88,156,101.32,156.05Zm42.8-26.91a31.39,31.39,0,0,1-26.6,14,13.15,13.15,0,0,0-3.06-6.59l1.32-14.83-3.26-1.56a19.38,19.38,0,0,0-5.41-1.53v-4.23H94V119a16,16,0,0,0-5.73,2.78A31.33,31.33,0,0,1,91.9,94.27L113.67,116a6.09,6.09,0,0,0,4.3,1.78H148.8A31.54,31.54,0,0,1,144.12,129.14Z"/><path class="cls-1" d="M118,0A118,118,0,1,0,236,118,118,118,0,0,0,118,0ZM92.94,43a5.85,5.85,0,0,1,5.85-5.85h9.37s0,0,0-.07a10.24,10.24,0,0,1,20.48,0,.15.15,0,0,1,0,.07H138A5.85,5.85,0,0,1,143.84,43v7.25H92.94Zm83,146.75a5.44,5.44,0,0,1-5.65,5.2H67a5.44,5.44,0,0,1-5.64-5.2V53.08A5.44,5.44,0,0,1,67,47.88H85.82v8.68h65.79V47.88h18.7a5.44,5.44,0,0,1,5.65,5.2Z"/></g></g></svg>