<?xml version="1.0" encoding="utf-8"?>
<!-- Generator: Adobe Illustrator 23.0.0, SVG Export Plug-In . SVG Version: 6.00 Build 0)  -->
<svg version="1.1" id="Capa_1" width="215" height="215" xmlns="http://www.w3.org/2000/svg" xmlns:xlink="http://www.w3.org/1999/xlink" x="0px" y="0px"
	 viewBox="0 0 215 215" style="enable-background:new 0 0 215 215;" xml:space="preserve">
<style type="text/css">
	.st0{fill:#06619E;}
</style>
<title>Icono11C1</title>
<g>
	<g id="Capa_1-2">
		<g id="Capa_1-2-2">
			<path class="st0" d="M107.6,28.8c-2.7,0-4.8,2.1-4.8,4.8c0,2.7,2.1,4.8,4.8,4.8c2.7,0,4.8-2.1,4.8-4.8l0,0
				C112.4,30.9,110.3,28.8,107.6,28.8C107.6,28.8,107.6,28.8,107.6,28.8L107.6,28.8z"/>
			<path class="st0" d="M107.5,0C48.1,0,0,48.1,0,107.5S48.1,215,107.5,215S215,166.9,215,107.5S166.9,0,107.5,0z M84.7,39.2
				c0-2.9,2.4-5.3,5.3-5.3h8.5v-0.1c0-5.2,4.2-9.3,9.3-9.3c5.1,0,9.3,4.2,9.3,9.3v0.1h8.5c2.9,0,5.3,2.4,5.3,5.3v6.6H84.7V39.2z
				 M160.3,172.9c-0.1,2.7-2.4,4.8-5.1,4.7H61c-2.7,0.1-5-2-5.1-4.7V48.4c0.1-2.7,2.4-4.8,5.1-4.7h17.1v7.9h59.9v-7.9h17
				c2.7-0.1,5,2,5.1,4.7L160.3,172.9z"/>
			<path class="st0" d="M141.3,64.8H73.9c-2.2-0.1-4,1.6-4.1,3.8V161c0.1,2.2,1.9,3.9,4.1,3.8h67.4c2.2,0.1,4-1.6,4.1-3.8V68.6
				C145.3,66.4,143.5,64.7,141.3,64.8z M104.2,110.7c0.7,2.4,0.7,5,0,7.4c-0.1,0.5,0,1.1,0.4,1.5c1.6,1.7,3.3,3.3,4.9,5
				c0.5,0.8,1.6,1,2.3,0.5c0,0,0,0,0,0l0,0c6-2.8,13.1-0.1,15.9,5.9c1.9,4.2,1.3,9.1-1.6,12.6c-2,2.3-4.7,3.8-7.7,4.4h-3
				c-2.3-0.4-4.5-1.4-6.3-2.8c-3.8-3.2-5.3-8.4-3.6-13.1c0.4-0.7,0.2-1.6-0.5-2.1c-1.9-1.8-3.7-3.7-5.6-5.6
				c-5.2,3.4-12.1,2.4-16-2.4c-3.6-4.4-3.6-10.6-0.2-15.1c3.6-4.5,10.1-6.2,16.2-2.6c2-2,4-4,6-6.1c0.2-0.3,0.3-0.7,0.2-1
				c-2.5-6.2,0.5-13.2,6.7-15.7c0,0,0,0,0,0c0.9-0.4,1.9-0.6,2.9-0.8c0,0,0.1,0,0.1-0.1h3c0.3,0.1,0.6,0.2,1,0.3
				c5.8,1.2,10.2,7.2,9.5,12.9c-1.1,8.6-9.4,13.2-17.3,9.6c-0.5-0.4-1.3-0.2-1.6,0.3c-1.7,1.8-3.6,3.5-5.2,5.3
				C104.3,109.6,104.1,110.2,104.2,110.7z"/>
		</g>
	</g>
</g>
</svg>
