<svg xmlns="http://www.w3.org/2000/svg" width="236" height="236" viewBox="0 0 236 236">
  <g id="Grupo_10434" data-name="Grupo 10434" transform="translate(-87 -4498)">
    <path id="Trazado_1151" data-name="Trazado 1151" d="M241.587,4570.382H167.011a4.311,4.311,0,0,0-4.554,4.016v98a4.311,4.311,0,0,0,4.554,4.017h74.576a4.311,4.311,0,0,0,4.554-4.017v-98A4.311,4.311,0,0,0,241.587,4570.382Zm-67.566,38.312a7.907,7.907,0,0,1,7.9-7.9h32.271q-1.609,1.772-3.221,3.543l-6.983,7.685H185.248v1.405c-3.194-3.055-7.294-3.478-11.227-1.118Zm7.9,43.864a7.906,7.906,0,0,1-7.9-7.9v-4.133q4.315,5.751,8.634,11.5c.14.185.28.356.42.529Zm43.865-7.9a7.907,7.907,0,0,1-7.9,7.9H201.533q4.825-5.31,9.649-10.624l.548-.6h2.825v-3.11l7.085-7.8,4.143-4.564Zm11-39.412q-13.011,14.34-26.033,28.672-6.891,7.59-13.784,15.179c-3.361,3.7-6.707,3.533-9.745-.5q-8.058-10.712-16.1-21.439c-2.039-2.719-1.8-4.261.962-6.345,1.416-1.069,2.829-2.144,4.258-3.2,2.266-1.667,4.023-1.444,5.715.789,3.292,4.345,6.546,8.717,9.822,13.074.3.4.638.761,1.031,1.225,5.894-6.485,11.717-12.894,17.541-19.3q8.043-8.85,16.089-17.7c1.933-2.119,3.79-2.211,5.892-.336q2.054,1.831,4.078,3.695C238.809,4601.182,238.89,4602.922,236.779,4605.249Z" fill="#fff"/>
    <path id="Trazado_1152" data-name="Trazado 1152" d="M204.619,4532.2a5.083,5.083,0,1,0,5.084,5.083A5.083,5.083,0,0,0,204.619,4532.2Z" fill="#fff"/>
    <path id="Trazado_1153" data-name="Trazado 1153" d="M205,4498a118,118,0,1,0,118,118A118,118,0,0,0,205,4498Zm-24.666,45.278a5.648,5.648,0,0,1,5.648-5.648h9.039c0-.022,0-.043,0-.065a9.884,9.884,0,0,1,19.768,0c0,.022,0,.043,0,.065h9.04a5.649,5.649,0,0,1,5.648,5.648v6.994H180.334Zm82.317,141.672c0,2.773-2.549,5.021-5.693,5.021H152.779c-3.144,0-5.693-2.248-5.693-5.021V4552.982c0-2.773,2.549-5.02,5.693-5.02h18.947v8.381H238.09v-8.381h18.868c3.144,0,5.693,2.247,5.693,5.02Z" fill="#fff"/>
  </g>
</svg>
