<svg xmlns="http://www.w3.org/2000/svg" width="215" height="215" viewBox="0 0 215 215">
  <g id="Grupo_10456" data-name="Grupo 10456" transform="translate(-95 -5126)">
    <g id="Grupo_10455" data-name="Grupo 10455" transform="translate(95 5126)">
      <path id="Trazado_1194" data-name="Trazado 1194" d="M195.391,5179.31a43.776,43.776,0,1,0,43.814,43.763A44.026,44.026,0,0,0,195.391,5179.31Z" transform="translate(-103.013 -5133.541)" fill="#06619e"/>
      <path id="Trazado_1195" data-name="Trazado 1195" d="M202.5,5126A107.5,107.5,0,1,0,310,5233.5,107.5,107.5,0,0,0,202.5,5126Zm-16.22,143.187a54.74,54.74,0,1,1,54.959-54.385C241.147,5244.8,216.449,5269.243,186.28,5269.188ZM265.3,5292.8c-4.589,4.76-8.158,5.4-11.792,1.635-9.978-10.334-19.806-20.815-29.446-30.977l12.118-11.6a9.5,9.5,0,0,1,1.616,1.218q14.279,13.914,28.506,27.882C270.2,5284.8,269.888,5288.044,265.3,5292.8Z" transform="translate(-95 -5126)" fill="#06619e"/>
    </g>
  </g>
</svg>
