<svg id="Grupo_10435" data-name="Grupo 10435" xmlns="http://www.w3.org/2000/svg" width="236" height="236" viewBox="0 0 236 236">
  <path id="Trazado_1155" data-name="Trazado 1155" d="M81.784,149.439a18.263,18.263,0,1,0,12.852,5.349A18.22,18.22,0,0,0,81.784,149.439Zm.339,32.089a13.888,13.888,0,1,1,13.888-13.889A13.888,13.888,0,0,1,82.123,181.528Z" fill="#fff"/>
  <path id="Trazado_1156" data-name="Trazado 1156" d="M145.168,49.233V87.892h38.687A50.856,50.856,0,0,0,145.168,49.233Z" fill="#fff"/>
  <path id="Trazado_1157" data-name="Trazado 1157" d="M118,0A118,118,0,1,0,236,118,118,118,0,0,0,118,0ZM68.686,91.529a9.161,9.161,0,0,0,4.867-1.795c.65-.545,1.23-1.125,1.923-1.649,4.263-3.226,8.765-3.249,13.067-.045a5.29,5.29,0,0,1,.655.592c2.954,3.042,6.767,3.4,11.694,2.713,1.186-.166,2.357-.374,3.833-.61-1.691,2.073-3.239,3.979-4.8,5.882-2.587,3.159-5.214,6.306-7.743,9.483a2.621,2.621,0,0,1-2.392.884c-5.207-.038-10.414-.02-15.621-.013-.868,0-1.571,0-2.063-.612-4.175-5.158-8.413-10.3-12.777-15.617C62.668,91.211,65.545,91.918,68.686,91.529Zm26.389,22.9v.507A4.076,4.076,0,0,1,91.011,119H73.066A4.076,4.076,0,0,1,69,114.941v-.507a4.076,4.076,0,0,1,4.064-4.064H91.011A4.076,4.076,0,0,1,95.075,114.434Zm-13.206,88.04c-19.356,0-38.6-12.3-38.6-31.66,0-15.866,13.82-41.187,28.487-48.582a4.183,4.183,0,0,0,1.142.159H90.5a4.191,4.191,0,0,0,1.35-.223c14.731,7.33,28.618,32.733,28.618,48.646C120.472,190.169,101.225,202.474,81.869,202.474Zm77.8-51.138a57.2,57.2,0,0,1-15.5,5.057c-2.158.367-4.338.609-6.508.909h-7.057c-1.924-.263-3.86-.464-5.775-.777a86.159,86.159,0,0,0-6.575-14.312c-5.175-9.016-11.536-16.459-18.021-21.219a10.536,10.536,0,0,0,1.508-5.441v-.177a10.555,10.555,0,0,0-2.714-7.073c1.328-1.639,2.679-3.281,4-4.885q1.191-1.446,2.379-2.893c1.121-1.37,2.238-2.741,3.4-4.169L120.678,81.8l-16.025,2.566c-.48.077-.929.151-1.358.222l-.122.02c-.886.146-1.651.272-2.4.377-4.81.674-6.049-.131-6.906-1.014a11.942,11.942,0,0,0-1.427-1.27A17.373,17.373,0,0,0,81.95,78.982h-.062a15.881,15.881,0,0,0-2.756.253,55.327,55.327,0,0,1,6.221-12.292c9.355-13.912,22.345-22.382,38.834-25.437,2.026-.375,4.093-.526,6.262-.8v1.662q0,27.767-.01,55.535a7.069,7.069,0,0,0,.975,3.67q14.037,24.254,28.034,48.53c.184.319.348.65.525.98A1.872,1.872,0,0,1,159.672,151.336Zm32.622-47.525c-.383,2.389-.656,4.8-1.168,7.162-3.341,15.428-11.667,27.511-24.72,36.605-8.639-14.967-17.236-29.865-25.912-44.9.52-.034.846-.073,1.172-.073q24.861,0,49.724,0c.3,0,.6.043.9.066Zm0-8.422c-.49-.029-.979-.084-1.468-.084Q165,95.3,139.174,95.328c-1.142,0-1.452-.27-1.45-1.436q.062-25.882.028-51.766V40.644c2.708.394,5.321.582,7.84,1.17q35,8.166,44.982,42.736a80.06,80.06,0,0,1,1.514,8.489c.058.33.137.656.206.984Z" fill="#fff"/>
  <path id="Trazado_1158" data-name="Trazado 1158" d="M85.051,167.593a10.734,10.734,0,0,0-2.234-1.331v-3.009a7.443,7.443,0,0,1,2.581.81l.868-2.43a7.627,7.627,0,0,0-3.333-.938v-1.527H81.776v1.585a4.027,4.027,0,0,0-2.546,1.157,3.378,3.378,0,0,0-.915,2.442,3.954,3.954,0,0,0,.66,2.315,6.191,6.191,0,0,0,2.118,1.759l.544.267v3.148a7.274,7.274,0,0,1-1.759-.406,8.15,8.15,0,0,1-1.69-.775v2.708a7.358,7.358,0,0,0,3.472.88v2.037h1.157v-2.107a4.025,4.025,0,0,0,2.593-1.157,4.144,4.144,0,0,0,.613-4.19A3.588,3.588,0,0,0,85.051,167.593Zm-3.333-1.91a3.033,3.033,0,0,1-.8-.6,1.162,1.162,0,0,1-.243-.741c0-.579.348-.938,1.042-1.065Zm1.1,6.088v-2.558a3.744,3.744,0,0,1,.787.637,1.041,1.041,0,0,1,.371.764A1.157,1.157,0,0,1,82.817,171.771Z" fill="#fff"/>
</svg>
