<svg xmlns="http://www.w3.org/2000/svg" width="215" height="215" viewBox="0 0 215 215">
  <g id="Grupo_10454" data-name="Grupo 10454" transform="translate(-965 -2544)">
    <g id="Grupo_10453" data-name="Grupo 10453" transform="translate(965 2544)">
      <path id="Trazado_1189" data-name="Trazado 1189" d="M1055.9,2667.5h7.463l5.889-12.273h-19.176Z" transform="translate(-973.24 -2554.44)" fill="#06619e"/>
      <path id="Trazado_1190" data-name="Trazado 1190" d="M1123.863,2691.319a10.543,10.543,0,1,0,10.543,10.544A10.543,10.543,0,0,0,1123.863,2691.319Z" transform="translate(-979.493 -2558.395)" fill="#06619e"/>
      <path id="Trazado_1191" data-name="Trazado 1191" d="M1054.492,2672.06l-3.036,14.469h16.435l-3.036-14.469Z" transform="translate(-973.269 -2556.139)" fill="#06619e"/>
      <path id="Trazado_1192" data-name="Trazado 1192" d="M1072.5,2544A107.5,107.5,0,1,0,1180,2651.5,107.5,107.5,0,0,0,1072.5,2544Zm-3.254,136.219h-68.709c-.277-16.166,7.243-33.119,29.218-44.853a36.117,36.117,0,0,1-9.885-25.192,31.6,31.6,0,1,1,63.2,0,35.957,35.957,0,0,1-10.132,25.4,57.91,57.91,0,0,1,17.905,13.846A32.77,32.77,0,0,0,1069.246,2680.219Zm75.224,14.12v.017a2.135,2.135,0,0,1-2.175,2.093h-5.722a27.508,27.508,0,0,1-1.758,4.218l4.088,4.088.011.01a2.126,2.126,0,0,1-.011,3.006l-9.164,9.262-.011.011a2.125,2.125,0,0,1-3.005-.011l-4.088-4.088a28.289,28.289,0,0,1-4.219,1.757v5.723a2.134,2.134,0,0,1-2.134,2.134h-13.1a2.135,2.135,0,0,1-2.093-2.175v-5.722a28.4,28.4,0,0,1-4.218-1.758l-4.088,4.088-.01.011a2.126,2.126,0,0,1-3.006-.011l-9.262-9.164-.01-.011a2.125,2.125,0,0,1,.01-3.006l4.088-4.087a27.5,27.5,0,0,1-1.757-4.219h-5.723a2.133,2.133,0,0,1-2.134-2.133v-13.1a2.134,2.134,0,0,1,2.182-2.084h5.722a28.36,28.36,0,0,1,1.75-4.218l-4.088-4.088a2.134,2.134,0,0,1,0-3.017l9.164-9.271a2.134,2.134,0,0,1,3.017,0l4.087,4.088a28.215,28.215,0,0,1,4.219-1.749V2655.2a2.133,2.133,0,0,1,2.134-2.133h13.1a2.134,2.134,0,0,1,2.084,2.182v5.722a28.386,28.386,0,0,1,4.218,1.75l4.088-4.088.011-.011a2.125,2.125,0,0,1,3.005.011l9.262,9.2.011.011a2.125,2.125,0,0,1-.011,3.005l-4.088,4.088a28.3,28.3,0,0,1,1.757,4.218h5.723a2.134,2.134,0,0,1,2.134,2.1Z" transform="translate(-965 -2544)" fill="#06619e"/>
      <path id="Trazado_1193" data-name="Trazado 1193" d="M1123.863,2676.288a25.574,25.574,0,1,0,25.574,25.575A25.6,25.6,0,0,0,1123.863,2676.288Zm0,43.97a18.4,18.4,0,1,1,18.4-18.4A18.416,18.416,0,0,1,1123.863,2720.258Z" transform="translate(-980.142 -2559.029)" fill="#06619e"/>
    </g>
  </g>
</svg>
