<svg xmlns="http://www.w3.org/2000/svg" width="236" height="236" viewBox="0 0 236 236">
  <g id="Grupo_10433" data-name="Grupo 10433" transform="translate(-93 -3377)">
    <path id="Trazado_1148" data-name="Trazado 1148" d="M246.906,3453.461H174.258a4.273,4.273,0,0,0-4.437,4.088v99.746a4.273,4.273,0,0,0,4.437,4.088h72.648a4.273,4.273,0,0,0,4.436-4.088v-99.746A4.273,4.273,0,0,0,246.906,3453.461Zm-35.4,95.666H181.93c-.872,0-1.579-1.254-1.579-2.8s.707-2.8,1.579-2.8H211.5c.872,0,1.579,1.254,1.579,2.8S212.375,3549.127,211.5,3549.127Zm2.3-10.69H179.921c-.873,0-1.58-1.254-1.58-2.8s.707-2.8,1.58-2.8H213.8c.872,0,1.579,1.254,1.579,2.8S214.672,3538.437,213.8,3538.437Zm22.336-27.951a30.851,30.851,0,0,1-51.312-34.266l21.394,21.394a6,6,0,0,0,4.23,1.75h30.291A30.84,30.84,0,0,1,236.136,3510.486ZM212.928,3487.4l-19.644-19.643a30.749,30.749,0,0,1,47.455,19.643Z" fill="#fff"/>
    <path id="Trazado_1149" data-name="Trazado 1149" d="M210.571,3414.6a5.173,5.173,0,1,0,5.173,5.173A5.174,5.174,0,0,0,210.571,3414.6Z" fill="#fff"/>
    <path id="Trazado_1150" data-name="Trazado 1150" d="M211,3377a118,118,0,1,0,118,118A118,118,0,0,0,211,3377Zm-25.147,48.875a5.748,5.748,0,0,1,5.748-5.749h9.2c0-.022,0-.044,0-.066a10.06,10.06,0,1,1,20.12,0c0,.022,0,.044,0,.066h9.2a5.749,5.749,0,0,1,5.749,5.749v7.119H185.853Zm81.572,144.2a5.341,5.341,0,0,1-5.546,5.11H160.393a5.341,5.341,0,0,1-5.545-5.11V3435.752a5.341,5.341,0,0,1,5.545-5.11h18.458v8.53H243.5v-8.53h18.379a5.341,5.341,0,0,1,5.546,5.11Z" fill="#fff"/>
  </g>
</svg>
