<svg xmlns="http://www.w3.org/2000/svg" width="215" height="215" viewBox="0 0 215 215">
  <g id="Grupo_10459" data-name="Grupo 10459" transform="translate(-93 -3377)">
    <path id="Trazado_1199" data-name="Trazado 1199" d="M246.906,3453.461H174.258a4.273,4.273,0,0,0-4.437,4.088v99.746a4.273,4.273,0,0,0,4.437,4.088h72.648a4.273,4.273,0,0,0,4.436-4.088v-99.746A4.273,4.273,0,0,0,246.906,3453.461Zm-35.4,95.666H181.93c-.872,0-1.579-1.254-1.579-2.8s.707-2.8,1.579-2.8H211.5c.872,0,1.579,1.254,1.579,2.8S212.375,3549.127,211.5,3549.127Zm2.3-10.69H179.921c-.873,0-1.58-1.254-1.58-2.8s.707-2.8,1.58-2.8H213.8c.872,0,1.579,1.254,1.579,2.8S214.672,3538.437,213.8,3538.437Zm22.336-27.951a30.851,30.851,0,0,1-51.312-34.266l21.394,21.394a6,6,0,0,0,4.23,1.75h30.291A30.84,30.84,0,0,1,236.136,3510.486ZM212.928,3487.4l-19.644-19.643a30.749,30.749,0,0,1,47.455,19.643Z" transform="translate(-10.443 -12.537)" fill="#06619e"/>
    <path id="Trazado_1200" data-name="Trazado 1200" d="M210.571,3414.6a5.173,5.173,0,1,0,5.173,5.173A5.174,5.174,0,0,0,210.571,3414.6Z" transform="translate(-10.46 -3.499)" fill="#06619e"/>
    <path id="Trazado_1201" data-name="Trazado 1201" d="M200.5,3377A107.5,107.5,0,1,0,308,3484.5,107.5,107.5,0,0,0,200.5,3377Zm-22.909,44.526a5.237,5.237,0,0,1,5.237-5.238h8.382c0-.02,0-.04,0-.06a9.165,9.165,0,0,1,18.33,0c0,.02,0,.04,0,.06h8.381a5.238,5.238,0,0,1,5.237,5.238v6.485H177.591ZM251.9,3552.89a4.866,4.866,0,0,1-5.052,4.655H154.4a4.866,4.866,0,0,1-5.052-4.655V3430.524a4.866,4.866,0,0,1,5.052-4.655h16.816v7.771h58.9v-7.771h16.744a4.866,4.866,0,0,1,5.052,4.655Z" fill="#06619e"/>
  </g>
</svg>
