<svg xmlns="http://www.w3.org/2000/svg" width="236" height="236" viewBox="0 0 236 236">
  <g id="Grupo_10427" data-name="Grupo 10427" transform="translate(-86 -4814)">
    <path id="Trazado_1135" data-name="Trazado 1135" d="M202.914,4923.456a8.906,8.906,0,1,0,8.907,8.906A8.905,8.905,0,0,0,202.914,4923.456Z" fill="#fff"/>
    <path id="Trazado_1136" data-name="Trazado 1136" d="M203.619,4844.58a5.083,5.083,0,1,0,5.084,5.083A5.083,5.083,0,0,0,203.619,4844.58Z" fill="#fff"/>
    <path id="Trazado_1137" data-name="Trazado 1137" d="M202.914,4910.759a21.6,21.6,0,1,0,21.6,21.6A21.628,21.628,0,0,0,202.914,4910.759Zm0,37.142a15.539,15.539,0,1,1,15.539-15.539A15.557,15.557,0,0,1,202.914,4947.9Z" fill="#fff"/>
    <path id="Trazado_1138" data-name="Trazado 1138" d="M240.587,4882.762H166.011a4.31,4.31,0,0,0-4.554,4.016v98a4.31,4.31,0,0,0,4.554,4.016h74.576a4.31,4.31,0,0,0,4.554-4.016v-98A4.31,4.31,0,0,0,240.587,4882.762Zm-5.458,55.649v.015a1.98,1.98,0,0,1-2.016,1.941h-5.306a25.561,25.561,0,0,1-1.63,3.911l3.79,3.79.01.009a1.972,1.972,0,0,1-.01,2.788l-8.5,8.588-.01.01a1.971,1.971,0,0,1-2.787-.01l-3.79-3.79a26.368,26.368,0,0,1-3.911,1.629v5.306a1.979,1.979,0,0,1-1.979,1.979H196.85a1.979,1.979,0,0,1-1.94-2.017v-5.306a26.335,26.335,0,0,1-3.912-1.629l-3.79,3.79-.01.01a1.97,1.97,0,0,1-2.786-.01l-8.589-8.5-.009-.01a1.971,1.971,0,0,1,.009-2.787l3.79-3.79a25.641,25.641,0,0,1-1.629-3.911h-5.306a1.979,1.979,0,0,1-1.979-1.979V4926.29a1.978,1.978,0,0,1,2.023-1.933h5.306a26.357,26.357,0,0,1,1.622-3.911l-3.79-3.79a1.978,1.978,0,0,1,0-2.8l8.5-8.595a1.978,1.978,0,0,1,2.8,0l3.79,3.79a26.2,26.2,0,0,1,3.912-1.622v-5.306a1.978,1.978,0,0,1,1.978-1.979h12.151a1.978,1.978,0,0,1,1.933,2.023v5.306a26.232,26.232,0,0,1,3.911,1.622l3.79-3.79.01-.01a1.971,1.971,0,0,1,2.787.01l8.588,8.528.01.009a1.972,1.972,0,0,1-.01,2.788l-3.79,3.79a26.4,26.4,0,0,1,1.63,3.911h5.3a1.979,1.979,0,0,1,1.979,1.948Z" fill="#fff"/>
    <path id="Trazado_1139" data-name="Trazado 1139" d="M204,4814a118,118,0,1,0,118,118A118,118,0,0,0,204,4814Zm-24.666,41.659a5.647,5.647,0,0,1,5.648-5.648h9.039c0-.022,0-.044,0-.066a9.884,9.884,0,0,1,19.768,0c0,.022,0,.044,0,.066h9.04a5.648,5.648,0,0,1,5.648,5.648v6.994H179.334Zm82.317,141.672c0,2.772-2.549,5.02-5.693,5.02H151.779c-3.144,0-5.693-2.248-5.693-5.02V4865.363c0-2.773,2.549-5.021,5.693-5.021h18.947v8.381H237.09v-8.381h18.868c3.144,0,5.693,2.248,5.693,5.021Z" fill="#fff"/>
  </g>
</svg>
