<svg xmlns="http://www.w3.org/2000/svg" width="215" height="215" viewBox="0 0 236 236"><defs><style>.cls-1{fill:#6997af;}</style></defs><title>icono5</title><g id="Capa_2" data-name="Capa 2"><g id="Capa_1-2" data-name="Capa 1"><path id="Trazado_1195" data-name="Trazado 1195" class="cls-1" d="M118,0A118,118,0,1,0,236,118,118,118,0,0,0,118,0ZM100.2,157.17a60.09,60.09,0,1,1,60.32-59.84v.15c-.1,32.92-27.21,59.75-60.32,59.69Zm86.73,25.92c-5,5.23-9,5.93-12.94,1.8-11-11.35-21.74-22.85-32.32-34L155,138.15a10,10,0,0,1,1.77,1.34q15.67,15.27,31.29,30.6C192.31,174.31,192,177.87,186.93,183.09Z"/><path class="cls-1" d="M101.4,50.24a48.05,48.05,0,1,0,48.09,48A48,48,0,0,0,101.4,50.24Zm7.14,76H94.42V112.58h14.12Zm-1.43-19.92H95.85L93.66,67.52H109.3Z"/></g></g></svg>