<svg xmlns="http://www.w3.org/2000/svg" width="215" height="215" viewBox="0 0 215 215">
  <g id="Grupo_10452" data-name="Grupo 10452" transform="translate(-68 -216)">
    <path id="Trazado_1187" data-name="Trazado 1187" d="M187.416,368.091a26.7,26.7,0,0,0-6.509-3.638v-8.362h.34a14.192,14.192,0,0,1,6.022,1.354l.551-5.189a20.334,20.334,0,0,0-6.912-1.128v-3.248h-1.993v3.248a10.45,10.45,0,0,0-6.148,2.83q-2.376,2.331-2.375,6.722,0,4.121,2.162,5.932a25.452,25.452,0,0,0,6.361,3.576v8.465a2.862,2.862,0,0,1-.805.091,11.847,11.847,0,0,1-3.393-.519,15.433,15.433,0,0,1-3.307-1.422l-.552,5.685q2.247.587,3.647.9a18.99,18.99,0,0,0,3.943.316l.466-.046v3.565h1.993v-3.7a10.583,10.583,0,0,0,6.276-2.824,8.73,8.73,0,0,0,2.375-6.531Q189.558,369.876,187.416,368.091Zm-8.5-4.509a5.923,5.923,0,0,1-1.738-1.354,2.671,2.671,0,0,1-.594-1.759,4.38,4.38,0,0,1,.636-2.481,4.1,4.1,0,0,1,1.7-1.445Zm3.774,13.176a4.671,4.671,0,0,1-1.781,1.353v-6.9a5.481,5.481,0,0,1,1.824,1.466,3.5,3.5,0,0,1-.043,4.084Z" transform="translate(-9.553 -13.031)" fill="#6997af"/>
    <path id="Trazado_1188" data-name="Trazado 1188" d="M175.5,216A107.5,107.5,0,1,0,283,323.5,107.5,107.5,0,0,0,175.5,216Zm51.039,86.245C232.681,304.3,234,306.4,234,306.811s-1.324,2.534-7.466,4.567a75.5,75.5,0,0,1-22.833,3.128,75.332,75.332,0,0,1-22.833-3.128c-6.142-2.033-7.466-4.156-7.466-4.567s1.324-2.512,7.466-4.566a74.732,74.732,0,0,1,22.833-3.128A74.785,74.785,0,0,1,226.539,302.245Zm-94.824-36.192a75.554,75.554,0,0,1,22.833-3.1,75.493,75.493,0,0,1,22.833,3.1c6.142,2.055,7.467,4.156,7.467,4.567s-1.325,2.512-7.467,4.566a75.36,75.36,0,0,1-22.833,3.128,75.478,75.478,0,0,1-22.833-3.128c-6.21-2.054-7.466-4.155-7.466-4.566S125.574,268.108,131.715,266.053Zm-7.466,14.7c7.489,3.608,19.2,5.3,30.321,5.3,11.1,0,22.7-1.689,30.3-5.3v14.59a19.559,19.559,0,0,1-6.691,3.379,78.008,78.008,0,0,1-23.609,3.22,78.106,78.106,0,0,1-23.632-3.22,19.555,19.555,0,0,1-6.69-3.379Zm0,23.38c7.6,3.608,19.225,5.32,30.321,5.32a103.326,103.326,0,0,0,14.117-.951v8.385a37.576,37.576,0,0,0-21.548,8.216,77.949,77.949,0,0,1-16.2-3,19.614,19.614,0,0,1-6.69-3.356Zm0,23.358a56.978,56.978,0,0,0,16.3,4.389,37.585,37.585,0,0,0-6.666,14.4q-1.477-.38-2.943-.817a19.634,19.634,0,0,1-6.69-3.357Zm0,36.533V350.9a45.774,45.774,0,0,0,8.722,2.964c-.005.244-.019.487-.019.732a37.63,37.63,0,0,0,2.923,14.583C128.766,367.547,124.863,365.27,124.249,364.028Zm46.461,21.583a30.341,30.341,0,1,1,30.341-30.341A30.342,30.342,0,0,1,170.71,385.611Zm63.317-8.772c-1.027,2.078-11.279,7.055-30.321,7.055-3.155,0-6.062-.138-8.731-.376a37.853,37.853,0,0,0,10.637-14.506c10.523-.185,21.246-1.9,28.416-5.3Zm0-21.9a19.641,19.641,0,0,1-6.69,3.356,78.005,78.005,0,0,1-19.509,3.19,37.674,37.674,0,0,0-.457-15.928c9.947-.336,19.886-2.042,26.655-5.255Zm0-23.381a19.608,19.608,0,0,1-6.69,3.356,78,78,0,0,1-22.628,3.24A37.91,37.91,0,0,0,188.136,321.1a101.847,101.847,0,0,0,15.57,1.168c11.12,0,22.719-1.713,30.321-5.32Z" transform="translate(0)" fill="#6997af"/>
  </g>
</svg>
