<svg xmlns="http://www.w3.org/2000/svg" width="215" height="215" viewBox="0 0 215 215">
  <g id="Grupo_10451" data-name="Grupo 10451" transform="translate(-93.5 -5742.5)">
    <path id="Trazado_1183" data-name="Trazado 1183" d="M255.832,5819.725v-8.017a23.337,23.337,0,0,1,9.185,2.124l.638-7.167c-2.442-1.168-6.531-1.646-9.823-1.646V5800.5h-3.186v4.513c-7.008.319-12.8,3.557-12.8,11.149,0,6.8,6.159,10.3,12.106,11.2v8.972a27.108,27.108,0,0,1-10.035-1.911l-.69,7.539c2.176.85,7.326,1.381,10.724,1.381v4.565h3.186v-4.565c6.53-.107,13.22-3.717,13.22-11.468C268.362,5823.335,262.575,5821.211,255.832,5819.725Zm-3.186-.638c-2.229-.265-4.194-1.433-4.194-3.769,0-2.018,1.806-3.5,4.194-3.61Zm2.5,17.255v-8.494c2.176.371,4.619,1.327,4.619,3.928C259.761,5834.8,257.956,5836.077,255.142,5836.342Z" transform="translate(-13.023 -5.161)" fill="#06619e"/>
    <path id="Trazado_1184" data-name="Trazado 1184" d="M189.617,5889.613h7.176l5.824-12.136H183.794Z" transform="translate(-8.035 -12.011)" fill="#06619e"/>
    <path id="Trazado_1185" data-name="Trazado 1185" d="M201,5742.5A107.5,107.5,0,1,0,308.5,5850,107.5,107.5,0,0,0,201,5742.5Zm39.279,160.842H130.062c-.3-17.5,7.819-35.845,31.518-48.578a39.011,39.011,0,0,1-10.9-27.458,34.489,34.489,0,0,1,34.3-34.585c.063,0,.125,0,.187,0s.125,0,.187,0a33.846,33.846,0,0,1,15.344,3.668c-12.073,14.957-11.633,36.1,1.77,50.159a2.634,2.634,0,0,1,.363.449,1.1,1.1,0,0,1,0,.125q-.217,5.459-.464,10.914l-.749,17.338,15.239-8.8,5.055-2.918C235.548,5875.323,240.514,5889.593,240.279,5903.342Zm27.155-56.462c-11.729,8.229-24.669,10.208-38.475,7.079a7.4,7.4,0,0,0-5.71.667c-4.616,2.67-9.236,5.334-13.916,8.036.219-5.078.449-10.164.652-15.252a7.519,7.519,0,0,0-2.335-5.8c-11.893-12.474-11.177-31.695,1.521-43.906,16.146-15.527,43.891-16.265,60.843-1.618C286.688,5810.493,285.5,5834.2,267.434,5846.879Z" fill="#06619e"/>
    <path id="Trazado_1186" data-name="Trazado 1186" d="M188.271,5895.751l-3,14.31H201.4l-3-14.31Z" transform="translate(-8.166 -13.637)" fill="#06619e"/>
  </g>
</svg>
