<svg xmlns="http://www.w3.org/2000/svg" width="215" height="215" viewBox="0 0 215 215">
  <g id="Grupo_10460" data-name="Grupo 10460" transform="translate(-72 -1403)">
    <path id="Trazado_1202" data-name="Trazado 1202" d="M153.784,1552.439a18.263,18.263,0,1,0,12.852,5.349A18.22,18.22,0,0,0,153.784,1552.439Zm.339,32.089a13.888,13.888,0,1,1,13.888-13.889A13.888,13.888,0,0,1,154.123,1584.528Z" transform="translate(-6.69 -15.723)" fill="#6997af"/>
    <path id="Trazado_1203" data-name="Trazado 1203" d="M217.168,1452.233v38.659h38.687A50.856,50.856,0,0,0,217.168,1452.233Z" transform="translate(-15.45 -5.239)" fill="#6997af"/>
    <path id="Trazado_1204" data-name="Trazado 1204" d="M179.5,1403A107.5,107.5,0,1,0,287,1510.5,107.5,107.5,0,0,0,179.5,1403Zm-44.926,83.385a8.345,8.345,0,0,0,4.434-1.635c.592-.5,1.121-1.025,1.752-1.5,3.884-2.939,7.985-2.96,11.9-.041a4.812,4.812,0,0,1,.6.539c2.691,2.771,6.165,3.1,10.653,2.472,1.08-.151,2.147-.341,3.492-.556-1.541,1.889-2.951,3.625-4.371,5.359-2.357,2.878-4.75,5.745-7.054,8.639a2.388,2.388,0,0,1-2.179.805c-4.744-.035-9.487-.018-14.231-.012-.791,0-1.431,0-1.879-.557-3.8-4.7-7.664-9.38-11.64-14.227C129.092,1486.095,131.713,1486.739,134.574,1486.385Zm24.041,20.867v.462a3.713,3.713,0,0,1-3.7,3.7H138.564a3.713,3.713,0,0,1-3.7-3.7v-.462a3.713,3.713,0,0,1,3.7-3.7h16.348A3.713,3.713,0,0,1,158.615,1507.251Zm-12.031,80.206c-17.634,0-35.167-11.21-35.167-28.843,0-14.454,12.59-37.522,25.952-44.259a3.814,3.814,0,0,0,1.04.145h16.041a3.817,3.817,0,0,0,1.23-.2c13.42,6.678,26.071,29.82,26.071,44.317C181.752,1576.247,164.218,1587.457,146.584,1587.457Zm70.88-46.588a52.109,52.109,0,0,1-14.12,4.607c-1.966.334-3.952.555-5.929.828h-6.429c-1.753-.24-3.517-.423-5.261-.708a78.493,78.493,0,0,0-5.99-13.038c-4.715-8.214-10.509-14.994-16.417-19.331a9.6,9.6,0,0,0,1.374-4.957v-.161a9.616,9.616,0,0,0-2.472-6.444c1.21-1.493,2.441-2.989,3.643-4.45q1.085-1.317,2.167-2.635c1.021-1.248,2.039-2.5,3.1-3.8l10.812-13.263-14.6,2.338c-.437.07-.846.138-1.237.2l-.111.018c-.807.133-1.5.248-2.187.344-4.382.614-5.511-.119-6.291-.924a10.879,10.879,0,0,0-1.3-1.157,15.827,15.827,0,0,0-9.556-3.386H146.6a14.458,14.458,0,0,0-2.511.23,50.406,50.406,0,0,1,5.667-11.2,52.6,52.6,0,0,1,35.378-23.174c1.846-.342,3.729-.479,5.7-.726v1.514q0,25.3-.009,50.593a6.44,6.44,0,0,0,.888,3.343q12.788,22.1,25.539,44.212c.168.291.317.592.478.893A1.717,1.717,0,0,1,217.464,1540.87Zm29.719-43.3c-.349,2.176-.6,4.374-1.064,6.525-3.044,14.055-10.629,25.063-22.52,33.348-7.87-13.635-15.7-27.208-23.606-40.9.474-.031.771-.067,1.068-.067q22.649,0,45.3,0c.274,0,.548.039.824.06Zm0-7.673c-.446-.026-.892-.076-1.337-.076q-23.527-.005-47.056.021c-1.04,0-1.323-.246-1.321-1.308q.056-23.579.026-47.16v-1.35c2.467.359,4.848.53,7.142,1.066q31.886,7.44,40.979,38.933A72.933,72.933,0,0,1,247,1487.76c.053.3.125.6.188.9Z" transform="translate(0)" fill="#6997af"/>
    <path id="Trazado_1205" data-name="Trazado 1205" d="M157.051,1570.593a10.738,10.738,0,0,0-2.234-1.331v-3.009a7.441,7.441,0,0,1,2.581.81l.868-2.43a7.627,7.627,0,0,0-3.333-.938v-1.527h-1.157v1.585a4.027,4.027,0,0,0-2.546,1.157,3.378,3.378,0,0,0-.915,2.442,3.954,3.954,0,0,0,.66,2.315,6.191,6.191,0,0,0,2.118,1.759l.544.267v3.148a7.275,7.275,0,0,1-1.759-.406,8.154,8.154,0,0,1-1.69-.775v2.708a7.359,7.359,0,0,0,3.472.88v2.037h1.157v-2.107a4.025,4.025,0,0,0,2.593-1.157,4.144,4.144,0,0,0,.613-4.19A3.587,3.587,0,0,0,157.051,1570.593Zm-3.333-1.91a3.035,3.035,0,0,1-.8-.6,1.162,1.162,0,0,1-.243-.741c0-.579.348-.938,1.042-1.065Zm1.1,6.088v-2.558a3.747,3.747,0,0,1,.787.637,1.041,1.041,0,0,1,.371.764A1.157,1.157,0,0,1,154.817,1574.771Z" transform="translate(-7.206 -15.271)" fill="#6997af"/>
  </g>
</svg>
