<svg xmlns="http://www.w3.org/2000/svg" width="215" height="215" viewBox="0 0 215 215">
  <g id="Grupo_10462" data-name="Grupo 10462" transform="translate(-815 -4572)">
    <g id="Grupo_10461" data-name="Grupo 10461" transform="translate(815 4572)">
      <path id="Trazado_1206" data-name="Trazado 1206" d="M936.861,4664.355v-14.527a42.287,42.287,0,0,1,16.643,3.849l1.154-12.989c-4.425-2.115-11.833-2.981-17.8-2.981v-8.177h-5.772v8.177c-12.7.577-23.185,6.445-23.185,20.2,0,12.314,11.159,18.664,21.933,20.3v16.259A49.121,49.121,0,0,1,911.655,4691l-1.25,13.661c3.944,1.539,13.275,2.5,19.432,2.5v8.273h5.773v-8.273c11.833-.193,23.954-6.734,23.954-20.779C959.564,4670.9,949.078,4667.048,936.861,4664.355Zm-5.772-1.154c-4.041-.482-7.6-2.6-7.6-6.831,0-3.655,3.27-6.349,7.6-6.542Zm4.521,31.266v-15.392c3.944.672,8.369,2.4,8.369,7.118C943.979,4691.676,940.708,4693.985,935.61,4694.467Z" transform="translate(-825.584 -4580.049)" fill="#6997af"/>
      <path id="Trazado_1207" data-name="Trazado 1207" d="M922.5,4572A107.5,107.5,0,1,0,1030,4679.5,107.5,107.5,0,0,0,922.5,4572Zm22.712,166.816a5.41,5.41,0,0,1-4.892,5.135c-.8.109-1.618.127-2.349.179a2.784,2.784,0,0,0-.252.61c-.482,5.789-.481,5.8-6.447,5.8-6.408.007-12.816-.005-19.225,0-4.027,0-4.49-.457-4.621-4.6-.017-.569-.11-1.135-.18-1.816-.9-.062-1.723-.068-2.531-.184a5.428,5.428,0,0,1-4.831-4.944,21.154,21.154,0,0,1-.072-2.741c.059-4.439,1.983-6.408,6.414-6.426,8.988-.035,17.977-.016,26.965-.018q2.5,0,4.993.008c5.379.018,7.106,1.788,7.069,7.245C945.248,4737.653,945.26,4738.237,945.212,4738.816Zm24.353-66.853a24.118,24.118,0,0,1-3.237,6.1c-7.6,10.563-14.7,21.4-18.945,33.83a26.286,26.286,0,0,0-1.586,6.268c-.183,2.295-1.223,2.59-3.18,2.56-6.659-.1-13.322-.04-19.983-.037q-10.366,0-20.734.007c-1.113,0-2.083.093-2.307-1.509-1.049-7.535-4.055-14.413-7.8-20.908a180.122,180.122,0,0,0-11.961-18.686,34.536,34.536,0,0,1-6.67-17.707c-2.934-27.639,14.636-50.773,42-55.533,21.88-3.805,45.269,9.563,53.517,30.486A49.179,49.179,0,0,1,969.565,4671.963Z" transform="translate(-815 -4572)" fill="#6997af"/>
    </g>
  </g>
</svg>
