<svg xmlns="http://www.w3.org/2000/svg" width="215" height="215" viewBox="0 0 215 215">
  <g id="Grupo_10458" data-name="Grupo 10458" transform="translate(-99 -3915)">
    <g id="Grupo_10457" data-name="Grupo 10457" transform="translate(99 3915)">
      <path id="Trazado_1196" data-name="Trazado 1196" d="M206.5,3915A107.5,107.5,0,1,0,314,4022.5,107.5,107.5,0,0,0,206.5,3915Zm2.518,107.351a44.594,44.594,0,0,0,14.947,11.619,30.041,30.041,0,1,1-24.649-32.632,44.17,44.17,0,0,0,7.082,17.551,17.214,17.214,0,1,0,2.62,3.462Zm47.354,20.267v.03a3.825,3.825,0,0,1-3.9,3.751H242.215a49.348,49.348,0,0,1-3.151,7.562l7.328,7.328.019.02a3.81,3.81,0,0,1-.019,5.388L229.962,4083.3l-.019.019a3.81,3.81,0,0,1-5.389-.019l-7.328-7.327a50.869,50.869,0,0,1-7.562,3.15v10.26a3.825,3.825,0,0,1-3.825,3.825h-23.48a3.827,3.827,0,0,1-3.752-3.9v-10.259a50.873,50.873,0,0,1-7.562-3.151l-7.327,7.328-.02.019a3.811,3.811,0,0,1-5.389-.019L141.7,4066.8l-.019-.019a3.81,3.81,0,0,1,.019-5.389l7.328-7.328a49.379,49.379,0,0,1-3.151-7.562H135.622a3.825,3.825,0,0,1-3.825-3.825v-23.5a3.825,3.825,0,0,1,3.912-3.736h10.26a50.767,50.767,0,0,1,3.136-7.562l-7.327-7.327a3.825,3.825,0,0,1,0-5.409l16.429-16.62a3.826,3.826,0,0,1,5.408,0l7.328,7.328a50.675,50.675,0,0,1,7.562-3.137V3972.46a3.825,3.825,0,0,1,3.825-3.825h23.494a3.774,3.774,0,0,1,.673.076,44.163,44.163,0,0,0-7.591,20.728,41.766,41.766,0,1,0,36.4,48.175,44.723,44.723,0,0,0,21.068-1.326Zm21.078-46.353a34.392,34.392,0,0,1-8.806,20.761,34.034,34.034,0,0,1-16.99,10.49c-2.04.543-4.17.747-6.258,1.108-.233.04-.465.092-.7.139H240.22c-1.389-.2-2.784-.378-4.167-.618a33.438,33.438,0,0,1-15-6.679,35.1,35.1,0,0,1-4.637-51.283,34.175,34.175,0,0,1,11.229-8.285,36.336,36.336,0,0,1,10.876-3.07v-4.122c-1.306,0-2.554.033-3.8-.007a3.909,3.909,0,0,1-3.442-5.861,4.511,4.511,0,0,1,2.7-1.952h16.951a4.216,4.216,0,0,1,3.021,2.7c.855,2.588-1.044,5.045-3.951,5.115-1.192.028-2.385,0-3.617,0v4.1a35.172,35.172,0,0,1,10.78,3.03,33.715,33.715,0,0,1,9.132,6.151c.948-.862,1.838-1.689,2.748-2.5a3.864,3.864,0,0,1,6.409,1.857,3.7,3.7,0,0,1-.953,3.686c-.944,1-1.977,1.918-2.85,2.757,1.205,2.5,2.582,4.989,3.64,7.611A32.672,32.672,0,0,1,277.45,3996.265Z" transform="translate(-99 -3915)" fill="#06619e"/>
      <path id="Trazado_1197" data-name="Trazado 1197" d="M268.82,3997.052c-2.716-.019-5.433,0-8.269,0v-1.166c0-2.543.056-5.089-.023-7.631a4.229,4.229,0,0,0-8.45.089c-.06,2.923-.056,5.848-.063,8.771-.005,1.521-.021,3.043.052,4.561a4.159,4.159,0,0,0,4.051,3.957c4.387.047,8.776.075,13.163-.008a4.248,4.248,0,0,0,3.514-6.437A4.354,4.354,0,0,0,268.82,3997.052Z" transform="translate(-113.973 -3921.776)" fill="#06619e"/>
      <path id="Trazado_1198" data-name="Trazado 1198" d="M256.341,3971.426a29.929,29.929,0,1,0,30.056,29.885A29.944,29.944,0,0,0,256.341,3971.426Zm3.9,55.3a25.639,25.639,0,0,1-29.752-25.3,25.73,25.73,0,1,1,29.752,25.3Z" transform="translate(-114.206 -3921.727)" fill="#06619e"/>
    </g>
  </g>
</svg>
