<svg xmlns="http://www.w3.org/2000/svg" viewBox="0 0 515.58 141.45"><defs><style>.cls-1,.cls-2{fill:#1d1c1d;}.cls-1{fill-rule:evenodd;}</style></defs><title>Logo</title><g id="Capa_2" data-name="Capa 2"><g id="Capa_1-2" data-name="Capa 1"><path class="cls-1" d="M132.7,34V7.07H106.13V0H33.56V7.07H7V34H0v73.49H7v26.9H33.56v7.08h72.57v-7.08H132.7v-26.9h7V34ZM21.06,70.57a49.31,49.31,0,0,1,41.9-49v18a31.76,31.76,0,0,0-24.44,31A32.3,32.3,0,0,0,39.91,80l-15.37,9A49.78,49.78,0,0,1,21.06,70.57ZM70,120.08a48.6,48.6,0,0,1-38.43-18.9l15.37-9a31.16,31.16,0,0,0,46.07,0l15.37,9A48.6,48.6,0,0,1,70,120.08ZM115.34,89,100,80a32.4,32.4,0,0,0,1.41-9.45,31.76,31.76,0,0,0-24.45-31v-18a49.31,49.31,0,0,1,41.91,49A50.1,50.1,0,0,1,115.34,89Z"/><path class="cls-2" d="M195.9,91.4V7.08h17.33V79.44h37.08v12Zm48.84,0L277.17,7.08h17.37l32.4,84.32h-17.8l-8.65-22.5H266l-8.65,22.5Zm25.59-33.73h25.84L283.25,24.06,270.33,57.67ZM329.66,91.4V7.08h16.65V48L377.17,7.08h14.22L363.5,44.81,398.34,91.4H376.89L346.31,49.93V91.4Zm72.76,0V7.08h22.9l20.11,59.31L466.11,7.08h20.14V91.4h-16V27.76l-20.35,58H436L416,26.91V91.4Z"/><polygon class="cls-1" points="498 7.08 515.33 7.08 515.33 91.4 498 91.4 498 7.08 498 7.08"/><path class="cls-2" d="M213.16,104.89v3.89a24.3,24.3,0,0,0-8.68-1.91c-4,0-6,1.36-6,4.1a3.41,3.41,0,0,0,1.13,2.67,13.16,13.16,0,0,0,4.16,2.09l2.83,1,2.7.93q6.28,2.24,6.28,7.57a7.69,7.69,0,0,1-3.21,6.47q-3.2,2.43-8.58,2.43a38.32,38.32,0,0,1-9.65-1.62v-4.44q5.9,2.69,9.79,2.69a9.32,9.32,0,0,0,5.24-1.31,4,4,0,0,0,2-3.52,3.3,3.3,0,0,0-1.15-2.66,18.08,18.08,0,0,0-4.78-2.33l-3-1.09a17.31,17.31,0,0,1-6.15-3.42,6.35,6.35,0,0,1-1.72-4.66,7.45,7.45,0,0,1,2.64-6.11q2.64-2.16,7.43-2.16A32,32,0,0,1,213.16,104.89Z"/><path class="cls-2" d="M252.16,133.42V121.47L241.21,104.2h5.11l8.39,13.49,9.17-13.49h4.21L256.6,121.47v11.95Z"/><path class="cls-2" d="M313.12,104.89v3.89a24.34,24.34,0,0,0-8.68-1.91c-4,0-6,1.36-6,4.1a3.41,3.41,0,0,0,1.13,2.67,13,13,0,0,0,4.16,2.09l2.83,1,2.7.93q6.27,2.24,6.27,7.57a7.68,7.68,0,0,1-3.2,6.47,13.87,13.87,0,0,1-8.58,2.43,38.26,38.26,0,0,1-9.65-1.62v-4.44q5.9,2.69,9.78,2.69a9.3,9.3,0,0,0,5.24-1.31,4,4,0,0,0,2-3.52,3.28,3.28,0,0,0-1.16-2.66,17.76,17.76,0,0,0-4.78-2.33l-3-1.09a17.5,17.5,0,0,1-6.15-3.42,6.39,6.39,0,0,1-1.72-4.66,7.43,7.43,0,0,1,2.65-6.11q2.64-2.16,7.43-2.16A32.06,32.06,0,0,1,313.12,104.89Z"/><path class="cls-2" d="M352.1,133.42V107.57H341V104.2h26.63v3.37H356.53v25.85Z"/><path class="cls-2" d="M395.22,133.42V104.2h19.5v3.37H399.65v8.86h12.77v3.37H399.65v10.25h16.1v3.37Z"/><path class="cls-2" d="M442.52,133.42V104.2h5.33l6.34,18h.05l6.23-18H466v29.22H462.4V108.35h0l-6.5,18.9h-3.74l-6.47-18.38h0v24.55Z"/><path class="cls-2" d="M513.18,104.89v3.89a24.34,24.34,0,0,0-8.68-1.91c-4,0-6,1.36-6,4.1a3.41,3.41,0,0,0,1.13,2.67,13,13,0,0,0,4.16,2.09l2.83,1,2.7.93q6.27,2.24,6.27,7.57a7.68,7.68,0,0,1-3.2,6.47,13.87,13.87,0,0,1-8.58,2.43,38.26,38.26,0,0,1-9.65-1.62v-4.44q5.89,2.69,9.78,2.69a9.3,9.3,0,0,0,5.24-1.31,4,4,0,0,0,2-3.52,3.28,3.28,0,0,0-1.16-2.66,17.76,17.76,0,0,0-4.78-2.33l-3-1.09a17.5,17.5,0,0,1-6.15-3.42,6.39,6.39,0,0,1-1.72-4.66,7.43,7.43,0,0,1,2.65-6.11q2.64-2.16,7.43-2.16A32.06,32.06,0,0,1,513.18,104.89Z"/><rect class="cls-2" x="158.77" y="7.08" width="13.67" height="127.17"/></g></g></svg>