<svg xmlns="http://www.w3.org/2000/svg" width="39.5" height="32.666" viewBox="0 0 39.5 32.666">
  <g id="square-with-verification-sign" transform="translate(0 -3.417)">
    <g id="Grupo_227" data-name="Grupo 227">
      <path id="Trazado_1122" data-name="Trazado 1122" d="M27.667,12.378V8.417H5V31.083H27.667V21.871l5-5.108v16.82a2.494,2.494,0,0,1-2.5,2.5H2.5a2.5,2.5,0,0,1-2.5-2.5V5.917a2.5,2.5,0,0,1,2.5-2.5H30.167a2.5,2.5,0,0,1,2.5,2.5V7.27l2.547-2.6a2.5,2.5,0,1,1,3.574,3.5L18.949,28.435a2.5,2.5,0,0,1-1.773.752h-.013a2.508,2.508,0,0,1-1.768-.732L7.2,20.264a2.5,2.5,0,1,1,3.536-3.537l6.4,6.405Z" fill="#5d739a"/>
    </g>
  </g>
</svg>
